# xmcd CD database file
#
# Track frame offsets:
#	150
#	15020
#	27591
#	46530
#	59428
#	71874
#	84099
#	96474
#	110435
#	125315
#	137647
#	148325
#	165035
#	179727
#	192875
#	204780
#	218092
#	229150
#	240083
#	256129
#
# Disc length: 3556 seconds
#
# Revision: 1
# Processed by: cddbd v1.5.2PL0 Copyright (c) Steve Scherf et al.
# Submitted via: CDex 1.51
#
DISCID=050de214
DTITLE=Frank Sinatra - Simply Sinatra CD 1
DYEAR=2014
DGENRE=Jazz
TTITLE0=Come Fly With Me
TTITLE1=Falling In Love With Love
TTITLE2=You're Nobody Till Somebody Loves You
TTITLE3=Blue Moon
TTITLE4=Nice 'N' Easy
TTITLE5=High Hopes
TTITLE6=Saturday Night Is The Loneliest Night Of The Week
TTITLE7=Cheek To Cheek
TTITLE8=As Time Goes By
TTITLE9=April In Paris
TTITLE10=Nice Work If You Can Get It
TTITLE11=I've Got You Under My Skin
TTITLE12=The Lady Is A Tramp
TTITLE13=You Make Me Feel So Young
TTITLE14=Love And Marriage
TTITLE15=(Love Is) The Tender Trap
TTITLE16=I'm Gonna Sit Right Down And Write Myself A Letter
TTITLE17=Get Happy
TTITLE18=Hello, Young Lovers
TTITLE19=Jeepers Creepers
EXTD=YEAR: 2014
EXTT0=
EXTT1=
EXTT2=
EXTT3=
EXTT4=
EXTT5=
EXTT6=
EXTT7=
EXTT8=
EXTT9=
EXTT10=
EXTT11=
EXTT12=
EXTT13=
EXTT14=
EXTT15=
EXTT16=
EXTT17=
EXTT18=
EXTT19=
PLAYORDER=
